<svg xmlns="http://www.w3.org/2000/svg" viewBox="0 0 640 360" role="img" aria-labelledby="title desc">
  <title id="title">Potionality Logo</title>
  <desc id="desc">Potion flask mark with Potionality wordmark.</desc>
  <defs>
    <linearGradient id="bg" x1="0" y1="0" x2="1" y2="1">
      <stop offset="0%" stop-color="#151c2f" />
      <stop offset="100%" stop-color="#3b2145" />
    </linearGradient>
    <radialGradient id="glow" cx="0.2" cy="0.55" r="0.45">
      <stop offset="0%" stop-color="#f6d98a" stop-opacity="0.95" />
      <stop offset="100%" stop-color="#f6d98a" stop-opacity="0" />
    </radialGradient>
  </defs>
  <rect width="640" height="360" rx="24" fill="url(#bg)" />
  <circle cx="128" cy="190" r="106" fill="url(#glow)" />
  <path d="M118 92h54v28l24 32c16 22 18 53 4 77-12 22-35 35-59 35h-23c-24 0-47-13-59-35-14-24-12-55 4-77l24-32z" fill="#1f2434" stroke="#f8e8b6" stroke-width="8" />
  <path d="M102 164h86" stroke="#f8e8b6" stroke-width="6" />
  <path d="M114 212c15-18 41-24 62-15 8 3 13 9 16 15-8 14-23 23-39 23h-10c-14 0-26-9-29-23z" fill="#8d58d8" />
  <circle cx="184" cy="124" r="7" fill="#f8e8b6" />
  <circle cx="203" cy="145" r="5" fill="#f8e8b6" />
  <text x="246" y="163" fill="#ffffff" font-size="52" font-weight="700" letter-spacing="2" font-family="'Trebuchet MS','Segoe UI',sans-serif">POTIONALITY</text>
  <text x="248" y="202" fill="#d7caef" font-size="20" letter-spacing="3" font-family="'Trebuchet MS','Segoe UI',sans-serif">ARCANE PERSONALITY ELIXIR</text>
</svg>
